PathFileType	4	(X/Y/Z)	64_2_54_p0_0-350_filt_butterworth.trc
DataRate	CameraRate	NumFrames	NumMarkers	Units	OrigDataRate	OrigDataStartFrame	OrigNumFrames
60.0	60.0	5	27	m	60.0	0	350
Frame#	Time	RHip			RKnee			RAnkle			RBigToe			RSmallToe			RHeel			LHip			LKnee			LAnkle			LBigToe			LSmallToe			LHeel			Neck			Head			Nose			RShoulder			RElbow			RWrist			RThumb			RIndex			RPinky			LShoulder			LElbow			LWrist			LThumb			LIndex			LPinky			
		X1	Y1	Z1	X2	Y2	Z2	X3	Y3	Z3	X4	Y4	Z4	X5	Y5	Z5	X6	Y6	Z6	X7	Y7	Z7	X8	Y8	Z8	X9	Y9	Z9	X10	Y10	Z10	X11	Y11	Z11	X12	Y12	Z12	X13	Y13	Z13	X14	Y14	Z14	X15	Y15	Z15	X16	Y16	Z16	X17	Y17	Z17	X18	Y18	Z18	X19	Y19	Z19	X20	Y20	Z20	X21	Y21	Z21	X22	Y22	Z22	X23	Y23	Z23	X24	Y24	Z24	X25	Y25	Z25	X26	Y26	Z26	X27	Y27	Z27	
0	0.0	0.32050019156458487	0.712697493948745	0.5687940101329944	0.29736265982091237	0.9632890529262826	0.9391103447527261	0.25576413666748704	1.22477900839609	1.3260941726406303	0.2853748516768958	1.1150450202379796	1.4167614981845111	0.348729136383521	1.1234613142979488	1.3944269389691648	0.21185388433528046	1.3021088371601424	1.3496029890370036	0.13278423683645976	0.6847382502482373	0.5941452551048321	0.10670754942325772	0.9366414700845374	0.9648375977881827	0.08037354465469915	1.1973402585670552	1.3543096959780778	0.15944620963333753	1.0844186896003183	1.4304989277124929	0.09166177804169294	1.0449167768230248	1.414854092394889	0.0679311907837491	1.2624380828527966	1.3764536717967806	0.24327156666880131	0.45893883691648457	0.17801486208360282	0.2858043665528942	0.2328657628253398	0.030501354497721185	0.28256287330141644	0.27335022154050104	0.15620659502324655	0.39132294970540443	0.5137915330589666	0.22885444286382858	0.4150695202815356	0.7056990458222476	0.4247383897839996	0.4160738214428363	0.7873437814159222	0.6788659856715171	0.38750571840770004	0.7908964518505813	0.776566440461617	0.4030619835975887	0.8047532172938491	0.7850713370243083	0.41534971901691786	0.8751348866527103	0.7649845181883378	0.09416190605310726	0.46966697466161406	0.24153113037323073	0.029250822969729133	0.5955602498928301	0.47571349531301493	0.06655097519931033	0.6628872712664504	0.7057019347180977	0.10204746009035752	0.7181291689796533	0.7998241422328495	0.08384409270402986	0.7102880744573932	0.8304552220692051	0.006845858780190883	0.7449829503411391	0.8057613939352052
1	0.0166666666666666	0.322593479258635	0.7202161609120435	0.5649737197260237	0.29598181875502644	0.9639231119619921	0.941988924713323	0.2583046304485739	1.2212838252555376	1.3284025465641747	0.2851776948803929	1.1191736070067733	1.4165826351771311	0.3491838579377494	1.117938517905353	1.3943310386848622	0.21491285956064893	1.2884900356584574	1.3499676171472692	0.1318676885166108	0.683100687570125	0.5927814359796129	0.10684579585139327	0.9370819966034967	0.9650024691169021	0.0804853142782386	1.197673129420607	1.3542700279036786	0.15753132554546875	1.0723873727888171	1.4261266123263727	0.09022737619173901	1.0501387554722996	1.41501795182387	0.07009779004525396	1.2681561149452172	1.3761372577751896	0.23837520133307283	0.4636568204359919	0.17357430446703515	0.2857863419201919	0.2331104480170205	0.030458107251605793	0.2825790730668436	0.27333658046789755	0.15618464540211105	0.3914126458611537	0.5138868000814019	0.22879881952935793	0.415098708063198	0.7057701880378322	0.4246786989077922	0.41608858518517655	0.7877189973743741	0.6787949273540679	0.38734477362227016	0.7907804803366639	0.7765768302351408	0.4006593787907159	0.8032213718270033	0.7855822689295112	0.4155394946935174	0.8827977963904693	0.7637621373607486	0.0944635756840799	0.4670611540842274	0.24251159473059125	0.02949207341533852	0.5954655386559967	0.47730865001954825	0.06445049354757885	0.6602455320992915	0.7040377769447016	0.10227179959679328	0.7177369721791265	0.798589730629408	0.08702357520848099	0.7104283170282963	0.8276572171749232	0.021824376379009077	0.7287485298135141	0.8062321865659734
2	0.0333333333333333	0.3238819515283451	0.7244698054947214	0.5626317417774116	0.2953719749874451	0.9645148954805617	0.9437089830027862	0.25870554313648453	1.2211976277485206	1.3298620962528351	0.28515417194428405	1.1197946267286059	1.4165397108268543	0.34944190110245266	1.1137384496292793	1.3943029269609981	0.21543569179085004	1.283079948433015	1.350142790553072	0.13136125396824289	0.6820280782660644	0.5923489438662215	0.10693985153291156	0.9372832933601929	0.9650782782629969	0.08053980304699841	1.1980010688253926	1.3542675726030518	0.15709189990420488	1.0642126380093795	1.4234683601296787	0.08776968484943448	1.0545045691832196	1.4153760853616826	0.07132260544196352	1.2713571529660093	1.3759880054096931	0.23542869573456177	0.4664957784277711	0.17089356903303454	0.2857820553139083	0.2332476772273937	0.030430930551074546	0.2825882956325832	0.2733296193381802	0.15616417560442097	0.3913880302095297	0.5138703375503109	0.22879567447986335	0.41511814454011553	0.7058171009372404	0.42465131104850773	0.4160858144670651	0.7880254502379253	0.6787082349877233	0.3872425735574845	0.790745122584107	0.7765834351723386	0.3992890860406522	0.8023725214555263	0.7858732739544045	0.41560597614674444	0.8876313189982126	0.7633104286415381	0.09446783090214805	0.46705843015016957	0.242448992327816	0.029599758688779735	0.5958879265492723	0.47809185342057947	0.06421586398666299	0.657900423126682	0.703343244708146	0.10269824150987732	0.717117191619613	0.7978304182098005	0.08891572582504258	0.7104767920542469	0.826011901076805	0.03351316969172878	0.7166179354085392	0.8074045536339642
3	0.05	0.3242169991662664	0.7253459076815739	0.5617113862270856	0.29513688030976926	0.9646005954346185	0.9441691727467526	0.2575992985087667	1.2232461917763464	1.3303491904924525	0.28523060943226886	1.1178857795195851	1.4166390357457534	0.3494419693526248	1.111601358890876	1.3943604881920477	0.2141414609268038	1.2832993081964745	1.3501195963403245	0.13133298455351725	0.681653239146067	0.5925582865347618	0.10697855500296483	0.9372771588374645	0.9650535457398972	0.08053733070047338	1.1982647851251755	1.3543012897350661	0.15799936161501835	1.0615665932788714	1.4227083920718424	0.08453280025023817	1.0582078402832118	1.4158596287910943	0.07131520278341533	1.2713571554535417	1.3760232318584107	0.23458587834579886	0.4673051102906563	0.17011819213569443	0.2857846826343208	0.23328206674030885	0.03041889671836563	0.2825874015697704	0.2733310292716582	0.1561475816739162	0.39100503264417086	0.513540540715394	0.2289346117892207	0.4151242351499849	0.7058624914366871	0.4246545686965781	0.4160772500141804	0.7882599387877856	0.6786106909154204	0.3872047043226251	0.7908038847390966	0.7765917770012956	0.3992616347281173	0.8024172271230269	0.7858793652177195	0.41549452205268966	0.8896051863064598	0.7636707895441966	0.09426263549052179	0.46886243303970543	0.2416754771918098	0.029568366702551568	0.5972072272329858	0.47718994922673963	0.06656589854073791	0.6553846999292146	0.7039263220067407	0.10385929789617154	0.7155320805554626	0.7980324361984037	0.08958770915956696	0.7101577107867951	0.8257953243412176	0.03987486138824349	0.7106648373227212	0.8094945838980125
4	0.0666666666666666	0.3238059299267559	0.7249538685700256	0.561510612671835	0.2946960986612745	0.9638276136786839	0.9437609577846945	0.25661671489892657	1.224732057000966	1.3303207548674751	0.285259432473753	1.1164178958465594	1.4167741522497397	0.34929254874359766	1.1111712437799566	1.3944541492803029	0.21285171828750676	1.284950343280331	1.35007140708145	0.13152132196916813	0.6815540639780516	0.5927122401196152	0.1069820334323826	0.9372126859349051	0.9649858222780192	0.0805017311543571	1.1982843643431251	1.354246343288703	0.1590474402633377	1.062553782408435	1.422903315061508	0.08190359476761133	1.0604327643629385	1.4160787973955768	0.07036420252254363	1.2688214279040597	1.3760831649946552	0.23476665147784223	0.4671239031182076	0.1702807851896444	0.28578868404420343	0.2332804356189126	0.03040870316572016	0.28258081595701035	0.2733365248851427	0.1561413711830094	0.3900774304909592	0.5127896053139449	0.22925987496250133	0.4151185314071067	0.7059302566764365	0.4246671296960439	0.41606727960632617	0.7884392538557475	0.6785317705207788	0.38720855692156997	0.79089966564031	0.7765989545970776	0.4002564964377888	0.8031239466940071	0.7856623304998338	0.4152406033958947	0.8903186469563404	0.7644104983557631	0.09411514669712506	0.4701174694635387	0.24115746596740506	0.02954205036113311	0.5997263247724343	0.4748121529363786	0.07051866891239346	0.6528878734008827	0.7053696120184557	0.10627053202533446	0.7121813275161586	0.7989215881882258	0.09039342234125836	0.7087523679591837	0.8264509485862511	0.042306732270822614	0.7087106540734124	0.811588025342188
